<mxfile host="app.diagrams.net" modified="2024-05-28T13:46:02.970Z" agent="Mozilla/5.0 (Windows NT 10.0; Win64; x64) AppleWebKit/537.36 (KHTML, like Gecko) Chrome/125.0.0.0 Safari/537.36" etag="__eJn-95brZGjwjH5dtQ" version="24.4.9" type="device" pages="3">
  <diagram id="C5RBs43oDa-KdzZeNtuy" name="수정">
    <mxGraphModel dx="1529" dy="1139" grid="1" gridSize="10" guides="1" tooltips="1" connect="1" arrows="1" fold="1" page="1" pageScale="1" pageWidth="827" pageHeight="1169" math="0" shadow="0">
      <root>
        <mxCell id="WIyWlLk6GJQsqaUBKTNV-0" />
        <mxCell id="WIyWlLk6GJQsqaUBKTNV-1" parent="WIyWlLk6GJQsqaUBKTNV-0" />
        <mxCell id="HkRZP2H1TMRrkxnb4-V2-17" value="&lt;span style=&quot;font-style: italic; font-weight: 400; text-wrap: nowrap;&quot;&gt;SystemController&lt;/span&gt;" style="swimlane;whiteSpace=wrap;html=1;" parent="WIyWlLk6GJQsqaUBKTNV-1" vertex="1">
          <mxGeometry x="52.5" y="180" width="200" height="60" as="geometry" />
        </mxCell>
        <mxCell id="HkRZP2H1TMRrkxnb4-V2-18" value="&lt;span style=&quot;font-style: italic; font-weight: 400; text-wrap: nowrap;&quot;&gt;UserAdminAgent&lt;/span&gt;" style="swimlane;whiteSpace=wrap;html=1;" parent="WIyWlLk6GJQsqaUBKTNV-1" vertex="1">
          <mxGeometry x="322.5" y="180" width="200" height="60" as="geometry" />
        </mxCell>
        <mxCell id="HkRZP2H1TMRrkxnb4-V2-19" value="&lt;span style=&quot;font-style: italic; font-weight: 400; text-wrap: nowrap;&quot;&gt;UserService&lt;/span&gt;" style="swimlane;whiteSpace=wrap;html=1;" parent="WIyWlLk6GJQsqaUBKTNV-1" vertex="1">
          <mxGeometry x="597.5" y="180" width="200" height="60" as="geometry" />
        </mxCell>
        <mxCell id="HkRZP2H1TMRrkxnb4-V2-23" value="" style="endArrow=none;html=1;rounded=0;entryX=0;entryY=0.5;entryDx=0;entryDy=0;exitX=1;exitY=0.5;exitDx=0;exitDy=0;" parent="WIyWlLk6GJQsqaUBKTNV-1" source="HkRZP2H1TMRrkxnb4-V2-17" target="HkRZP2H1TMRrkxnb4-V2-18" edge="1">
          <mxGeometry width="50" height="50" relative="1" as="geometry">
            <mxPoint x="242.5" y="320" as="sourcePoint" />
            <mxPoint x="292.5" y="270" as="targetPoint" />
          </mxGeometry>
        </mxCell>
        <mxCell id="HkRZP2H1TMRrkxnb4-V2-24" value="" style="endArrow=none;html=1;rounded=0;entryX=0;entryY=0.5;entryDx=0;entryDy=0;exitX=1;exitY=0.5;exitDx=0;exitDy=0;" parent="WIyWlLk6GJQsqaUBKTNV-1" source="HkRZP2H1TMRrkxnb4-V2-18" edge="1">
          <mxGeometry width="50" height="50" relative="1" as="geometry">
            <mxPoint x="532.5" y="270" as="sourcePoint" />
            <mxPoint x="597.5" y="209.5" as="targetPoint" />
          </mxGeometry>
        </mxCell>
        <mxCell id="L3MPKyuBadmfce7sUsm3-11" value="&lt;span style=&quot;font-style: italic; font-weight: 400; text-wrap: nowrap;&quot;&gt;UserService&lt;/span&gt;" style="swimlane;whiteSpace=wrap;html=1;" parent="WIyWlLk6GJQsqaUBKTNV-1" vertex="1">
          <mxGeometry x="52.5" y="340" width="200" height="60" as="geometry" />
        </mxCell>
        <mxCell id="L3MPKyuBadmfce7sUsm3-12" value="&lt;span style=&quot;font-style: italic; font-weight: 400; text-wrap: nowrap;&quot;&gt;UserAdminAgent&lt;/span&gt;" style="swimlane;whiteSpace=wrap;html=1;" parent="WIyWlLk6GJQsqaUBKTNV-1" vertex="1">
          <mxGeometry x="322.5" y="340" width="200" height="60" as="geometry" />
        </mxCell>
        <mxCell id="L3MPKyuBadmfce7sUsm3-13" value="&lt;span style=&quot;font-style: italic; font-weight: 400; text-wrap: nowrap;&quot;&gt;Pop3Agent&lt;/span&gt;" style="swimlane;whiteSpace=wrap;html=1;" parent="WIyWlLk6GJQsqaUBKTNV-1" vertex="1">
          <mxGeometry x="597.5" y="340" width="200" height="60" as="geometry" />
        </mxCell>
        <mxCell id="L3MPKyuBadmfce7sUsm3-14" value="" style="endArrow=none;html=1;rounded=0;entryX=0;entryY=0.5;entryDx=0;entryDy=0;exitX=1;exitY=0.5;exitDx=0;exitDy=0;" parent="WIyWlLk6GJQsqaUBKTNV-1" source="L3MPKyuBadmfce7sUsm3-11" target="L3MPKyuBadmfce7sUsm3-12" edge="1">
          <mxGeometry width="50" height="50" relative="1" as="geometry">
            <mxPoint x="242.5" y="480" as="sourcePoint" />
            <mxPoint x="292.5" y="430" as="targetPoint" />
          </mxGeometry>
        </mxCell>
        <mxCell id="L3MPKyuBadmfce7sUsm3-15" value="" style="endArrow=none;html=1;rounded=0;entryX=0;entryY=0.5;entryDx=0;entryDy=0;exitX=1;exitY=0.5;exitDx=0;exitDy=0;" parent="WIyWlLk6GJQsqaUBKTNV-1" source="L3MPKyuBadmfce7sUsm3-12" edge="1">
          <mxGeometry width="50" height="50" relative="1" as="geometry">
            <mxPoint x="532.5" y="430" as="sourcePoint" />
            <mxPoint x="597.5" y="369.5" as="targetPoint" />
          </mxGeometry>
        </mxCell>
        <mxCell id="5y6CnohZ8X0puiKMSNA0-9" value="&lt;span style=&quot;font-style: italic; font-weight: 400; text-wrap: nowrap;&quot;&gt;SystemController&lt;/span&gt;" style="swimlane;whiteSpace=wrap;html=1;" parent="WIyWlLk6GJQsqaUBKTNV-1" vertex="1">
          <mxGeometry x="59" y="470" width="200" height="60" as="geometry" />
        </mxCell>
        <mxCell id="5y6CnohZ8X0puiKMSNA0-10" style="edgeStyle=orthogonalEdgeStyle;rounded=0;orthogonalLoop=1;jettySize=auto;html=1;entryX=0;entryY=0.5;entryDx=0;entryDy=0;" parent="WIyWlLk6GJQsqaUBKTNV-1" source="5y6CnohZ8X0puiKMSNA0-11" target="5y6CnohZ8X0puiKMSNA0-16" edge="1">
          <mxGeometry relative="1" as="geometry" />
        </mxCell>
        <mxCell id="5y6CnohZ8X0puiKMSNA0-11" value="&lt;span style=&quot;font-style: italic; font-weight: 400; text-wrap: nowrap;&quot;&gt;UserAdminAgent&lt;/span&gt;" style="swimlane;whiteSpace=wrap;html=1;" parent="WIyWlLk6GJQsqaUBKTNV-1" vertex="1">
          <mxGeometry x="329" y="470" width="200" height="60" as="geometry" />
        </mxCell>
        <mxCell id="5y6CnohZ8X0puiKMSNA0-12" value="" style="endArrow=none;html=1;rounded=0;entryX=0;entryY=0.5;entryDx=0;entryDy=0;exitX=1;exitY=0.5;exitDx=0;exitDy=0;" parent="WIyWlLk6GJQsqaUBKTNV-1" source="5y6CnohZ8X0puiKMSNA0-9" target="5y6CnohZ8X0puiKMSNA0-11" edge="1">
          <mxGeometry width="50" height="50" relative="1" as="geometry">
            <mxPoint x="249" y="610" as="sourcePoint" />
            <mxPoint x="299" y="560" as="targetPoint" />
          </mxGeometry>
        </mxCell>
        <mxCell id="5y6CnohZ8X0puiKMSNA0-16" value="&lt;span style=&quot;font-style: italic; font-weight: 400; text-wrap: nowrap;&quot;&gt;Pop3Agent&lt;/span&gt;" style="swimlane;whiteSpace=wrap;html=1;" parent="WIyWlLk6GJQsqaUBKTNV-1" vertex="1">
          <mxGeometry x="569" y="470" width="200" height="60" as="geometry" />
        </mxCell>
      </root>
    </mxGraphModel>
  </diagram>
  <diagram id="3wZC5nnikKacK4bI5jJe" name="탈퇴">
    <mxGraphModel dx="1032" dy="1139" grid="1" gridSize="10" guides="1" tooltips="1" connect="1" arrows="1" fold="1" page="1" pageScale="1" pageWidth="827" pageHeight="1169" math="0" shadow="0">
      <root>
        <mxCell id="0" />
        <mxCell id="1" parent="0" />
      </root>
    </mxGraphModel>
  </diagram>
  <diagram id="C1gfPc2_W0ORovNJX_VH" name="삭제">
    <mxGraphModel dx="1032" dy="1139" grid="1" gridSize="10" guides="1" tooltips="1" connect="1" arrows="1" fold="1" page="1" pageScale="1" pageWidth="827" pageHeight="1169" math="0" shadow="0">
      <root>
        <mxCell id="0" />
        <mxCell id="1" parent="0" />
      </root>
    </mxGraphModel>
  </diagram>
</mxfile>
